# xmcd
#
# Track frame offsets:
#	150
#	28450
#	50060
#	73631
#	108525
#	129106
#	151458
#	157469
#	193092
#	220411
#	248728
#	273518
#	294339
#	326289
#
# Disc length: 4705 seconds
#
# Revision: 2
# Processed by: cddbd v1.5.1PL2 Copyright (c) Steve Scherf et al.
# Submitted via: audiograbber 1.83.01
#
DISCID=db125f0e
DTITLE=Afro Celt Sound System - Pod
DYEAR=2004
DGENRE=Fusion
TTITLE0=Rise Above (Remix by Simon Emmerson, James McNally and Mass)
TTITLE1=Johnny At Sea (Mix by Martin Russell and Mass)
TTITLE2=Persistence Of Memory (Remix by Rae and Christian)
TTITLE3=Further In Time (Remix by Mass)
TTITLE4=Full Moon Low Tide (Remix by DJ Toshio)
TTITLE5=Release (Remix by Rollo And Sister Bliss)
TTITLE6=Release It (Masters at Work Segue/DJ Edit)
TTITLE7=Whirly 3 (Remix by Simon Emmerson, James McNally and Mass)
TTITLE8=Riding The Skies (Remix by Mass)
TTITLE9=Éireann (Remix by Mass)
TTITLE10=Release (Remix By Bipolar)
TTITLE11=When You're Falling (Remix by Wren and Morley)
TTITLE12=Lagan (Remix by Simon Emmerson, James McNally and Mass)
TTITLE13=Data Track
EXTD=YEAR: 2004
EXTT0=
EXTT1=
EXTT2=
EXTT3=
EXTT4=
EXTT5=
EXTT6=
EXTT7=
EXTT8=
EXTT9=
EXTT10=
EXTT11=
EXTT12=
EXTT13=
PLAYORDER=
